<svg aria-hidden="true" style="position: absolute; width: 0; height: 0; overflow: hidden;" version="1.1" xmlns="http://www.w3.org/2000/svg" xmlns:xlink="http://www.w3.org/1999/xlink">
<defs>
<symbol id="icon-adobephotoshop" viewBox="0 0 32 32">
<path fill="#00c8ff" style="fill: var(--color1, #00c8ff)" d="M0 0.4v31.2h32v-31.2zM1.333 1.733h29.333v28.533h-29.333zM7.733 7.707c0-0.089 0.187-0.155 0.299-0.155 0.859-0.044 2.117-0.067 3.437-0.067 3.696 0 5.133 2.027 5.133 4.621 0 3.387-2.456 4.84-5.469 4.84-0.507 0-0.68-0.023-1.033-0.023v5.123c0 0.111-0.044 0.155-0.153 0.155h-2.059c-0.111 0-0.153-0.040-0.153-0.151zM10.1 14.789c0.307 0.021 0.549 0.021 1.080 0.021 1.56 0 3.027-0.549 3.027-2.661 0-1.693-1.048-2.552-2.829-2.552-0.528 0-1.033 0.021-1.276 0.044zM21.576 13.205c-1.056 0-1.408 0.528-1.408 0.968 0 0.484 0.24 0.813 1.649 1.54 2.091 1.013 2.749 1.98 2.749 3.409 0 2.133-1.627 3.28-3.827 3.28-1.168 0-2.16-0.244-2.733-0.573-0.087-0.044-0.107-0.109-0.107-0.22v-1.956c0-0.133 0.064-0.177 0.152-0.112 0.832 0.551 1.803 0.792 2.683 0.792 1.056 0 1.496-0.44 1.496-1.035 0-0.484-0.307-0.903-1.649-1.607-1.893-0.907-2.685-1.827-2.685-3.369 0-1.716 1.341-3.147 3.673-3.147 1.147 0 1.952 0.176 2.392 0.373 0.109 0.067 0.133 0.176 0.133 0.264v1.827c0 0.111-0.067 0.177-0.2 0.133-0.592-0.352-1.467-0.573-2.319-0.568z"></path>
</symbol>
<symbol id="icon-css3" viewBox="0 0 32 32">
<path fill="#1572b6" style="fill: var(--color2, #1572b6)" d="M2 0h28l-2.547 28.751-11.484 3.249-11.42-3.251zM24.787 5.884l-17.573-0.004 0.284 3.496 13.5 0.003-0.34 3.621h-8.853l0.32 3.431h8.243l-0.488 4.697-3.88 1.072-3.941-1.080-0.251-2.813h-3.48l0.387 5.14 7.287 2.271 7.164-2.040z"></path>
</symbol>
<symbol id="icon-facebook" viewBox="0 0 32 32">
<path fill="#1877f2" style="fill: var(--color3, #1877f2)" d="M31.997 15.999c0-8.836-7.163-15.999-15.999-15.999s-15.999 7.163-15.999 15.999c0 7.985 5.851 14.604 13.499 15.804v-11.18h-4.062v-4.625h4.062v-3.525c0-4.010 2.389-6.225 6.043-6.225 1.75 0 3.581 0.313 3.581 0.313v3.937h-2.017c-1.987 0-2.607 1.233-2.607 2.498v3.001h4.437l-0.709 4.625h-3.728v11.18c7.649-1.2 13.499-7.819 13.499-15.804z"></path>
</symbol>
<symbol id="icon-qrcode" viewBox="0 0 32 32">
<path d="M10 2h-8v8h8v-8zM12 0v0 12h-12v-12h12zM4 4h4v4h-4zM30 2h-8v8h8v-8zM32 0v0 12h-12v-12h12zM24 4h4v4h-4zM10 22h-8v8h8v-8zM12 20v0 12h-12v-12h12zM4 24h4v4h-4zM14 0h2v2h-2zM16 2h2v2h-2zM14 4h2v2h-2zM16 6h2v2h-2zM14 8h2v2h-2zM16 10h2v2h-2zM14 12h2v2h-2zM14 16h2v2h-2zM16 18h2v2h-2zM14 20h2v2h-2zM16 22h2v2h-2zM14 24h2v2h-2zM16 26h2v2h-2zM14 28h2v2h-2zM16 30h2v2h-2zM30 16h2v2h-2zM2 16h2v2h-2zM4 14h2v2h-2zM0 14h2v2h-2zM8 14h2v2h-2zM10 16h2v2h-2zM12 14h2v2h-2zM18 16h2v2h-2zM20 14h2v2h-2zM22 16h2v2h-2zM24 14h2v2h-2zM26 16h2v2h-2zM28 14h2v2h-2zM30 20h2v2h-2zM18 20h2v2h-2zM20 18h2v2h-2zM22 20h2v2h-2zM26 20h2v2h-2zM28 18h2v2h-2zM30 24h2v2h-2zM18 24h2v2h-2zM20 22h2v2h-2zM24 22h2v2h-2zM26 24h2v2h-2zM28 22h2v2h-2zM30 28h2v2h-2zM20 26h2v2h-2zM22 28h2v2h-2zM24 26h2v2h-2zM26 28h2v2h-2zM20 30h2v2h-2zM24 30h2v2h-2zM28 30h2v2h-2z"></path>
</symbol>
<symbol id="icon-ticket" viewBox="0 0 32 32">
<path d="M18 10l4 4-8 8-4-4zM31.298 9.297l-2.297-2.297-1 1c-0.512 0.512-1.219 0.828-2 0.828-1.562 0-2.829-1.266-2.829-2.828 0-0.781 0.317-1.489 0.829-2.001l1-1-2.297-2.297c-0.936-0.936-2.469-0.936-3.405 0l-18.595 18.595c-0.936 0.936-0.936 2.469 0 3.405l2.297 2.297 0.999-0.999c0.512-0.513 1.22-0.83 2.001-0.83 1.562 0 2.828 1.266 2.828 2.828 0 0.781-0.317 1.489-0.829 2.001l-1 1 2.297 2.297c0.936 0.936 2.469 0.936 3.405 0l18.595-18.595c0.936-0.937 0.936-2.469 0-3.406zM14 26l-8-8 12-12 8 8-12 12z"></path>
</symbol>
<symbol id="icon-coin-yen" viewBox="0 0 32 32">
<path d="M15 2c-8.284 0-15 6.716-15 15s6.716 15 15 15c8.284 0 15-6.716 15-15s-6.716-15-15-15zM15 29c-6.627 0-12-5.373-12-12s5.373-12 12-12c6.627 0 12 5.373 12 12s-5.373 12-12 12z"></path>
<path d="M19 18c0.552 0 1-0.448 1-1s-0.448-1-1-1h-2.131l2.963-4.445c0.306-0.46 0.182-1.080-0.277-1.387s-1.080-0.182-1.387 0.277l-3.168 4.752-3.168-4.752c-0.306-0.46-0.927-0.584-1.387-0.277s-0.584 0.927-0.277 1.387l2.964 4.445h-2.132c-0.552 0-1 0.448-1 1s0.448 1 1 1h3v2h-3c-0.552 0-1 0.448-1 1s0.448 1 1 1h3v3c0 0.552 0.448 1 1 1s1-0.448 1-1v-3h3c0.552 0 1-0.448 1-1s-0.448-1-1-1h-3v-2h3z"></path>
</symbol>
<symbol id="icon-ligature" viewBox="0 0 32 32">
<path d="M24 27.244c0-0.001 0-0.002 0-0.004l-0.011-13.643-3.984 0.193h-7.873v-0.672c0-2.548 0.181-5.093 0.539-6.085 0.247-0.686 0.706-1.304 1.366-1.839 0.644-0.522 1.287-0.787 1.91-0.787 0.524 0 0.959 0.090 1.294 0.267 0.47 0.268 0.929 0.718 1.365 1.338 1.155 1.641 1.625 2.077 1.878 2.262 0.431 0.315 0.954 0.475 1.552 0.475 0.583 0 1.093-0.218 1.514-0.647 0.418-0.426 0.63-0.959 0.63-1.583 0-0.67-0.279-1.381-0.828-2.113-0.537-0.715-1.366-1.304-2.464-1.751-1.073-0.436-2.279-0.658-3.587-0.658-1.897 0-3.625 0.456-5.136 1.356-1.513 0.901-2.674 2.155-3.449 3.726-0.719 1.456-0.667 4.21-0.71 6.71h-3.929v2.231h3.925v10.146c0 2.24-0.685 2.844-0.944 3.166-0.357 0.444-1.017 0.91-1.889 0.91h-1.208v1.755h12.041v-1.755h-0.21c-2.848 0-3.657-0.307-3.657-3.776 0-0.001 0-0.001 0-0.002l-0.001-10.444h4.381c2.325 0 2.859 0.108 2.981 0.154 0.147 0.056 0.337 0.151 0.409 0.286 0.027 0.053 0.162 0.782 0.162 2.593v7.833c0 1.827-0.223 2.434-0.358 2.638-0.289 0.444-0.638 0.69-1.708 0.716v1.758h9.175v-1.745c-2.863 0-3.175-0.307-3.175-3.010z"></path>
</symbol>
</defs>
</svg>
